<?xml version="1.0" encoding="UTF-8"?>
<svg version="1.1" viewBox="0 0 301.71 276.7" xmlns="http://www.w3.org/2000/svg" xmlns:cc="http://creativecommons.org/ns#" xmlns:dc="http://purl.org/dc/elements/1.1/" xmlns:rdf="http://www.w3.org/1999/02/22-rdf-syntax-ns#" xmlns:xlink="http://www.w3.org/1999/xlink">
<metadata>
<rdf:RDF>
<cc:Work rdf:about="">
<dc:title>Etiquette Icons</dc:title>
<dc:description/>
<dc:subject>
<rdf:Bag>
<rdf:li/>
<rdf:li>insect</rdf:li>
<rdf:li>animal</rdf:li>
</rdf:Bag>
</dc:subject>
<dc:publisher>
<cc:Agent rdf:about="http://www.openclipart.org">
<dc:title>Andy Fitzsimon</dc:title>
</cc:Agent>
</dc:publisher>
<dc:creator>
<cc:Agent>
<dc:title>Andy Fitzsimon</dc:title>
</cc:Agent>
</dc:creator>
<dc:rights>
<cc:Agent>
<dc:title>Andy Fitzsimon</dc:title>
</cc:Agent>
</dc:rights>
<dc:date/>
<dc:format>image/svg+xml</dc:format>
<dc:type rdf:resource="http://purl.org/dc/dcmitype/StillImage"/>
<cc:license rdf:resource="http://web.resource.org/cc/PublicDomain"/>
<dc:language>en</dc:language>
</cc:Work>
<cc:License rdf:about="http://web.resource.org/cc/PublicDomain">
<cc:permits rdf:resource="http://web.resource.org/cc/Reproduction"/>
<cc:permits rdf:resource="http://web.resource.org/cc/Distribution"/>
<cc:permits rdf:resource="http://web.resource.org/cc/DerivativeWorks"/>
</cc:License>
</rdf:RDF>
</metadata>
<defs>
<linearGradient id="a">
<stop stop-opacity="0" offset="0"/>
<stop offset="1"/>
</linearGradient>
<linearGradient id="b">
<stop stop-color="#f7f7f7" stop-opacity="0" offset="0"/>
<stop stop-color="#fff" offset="1"/>
</linearGradient>
<linearGradient id="k" x1="107.11" x2="-588.46" y1="231.85" y2="834.29" gradientTransform="scale(.97771 1.0228)" gradientUnits="userSpaceOnUse" xlink:href="#a"/>
<linearGradient id="j" x1="107.92" x2="-602.17" y1="230.88" y2="845.9" gradientTransform="scale(.97877 1.0217)" gradientUnits="userSpaceOnUse" xlink:href="#a"/>
<linearGradient id="i" x1="108.72" x2="-620.89" y1="229.92" y2="861.84" gradientTransform="scale(.98286 1.0174)" gradientUnits="userSpaceOnUse" xlink:href="#a"/>
<linearGradient id="h" x1="108.44" x2="-609.42" y1="230.18" y2="851.93" gradientTransform="scale(.97846 1.022)" gradientUnits="userSpaceOnUse" xlink:href="#a"/>
<linearGradient id="g" x1="156.13" x2="162.73" y1="97.763" y2="84.428" gradientTransform="scale(.95811 1.0437)" gradientUnits="userSpaceOnUse" xlink:href="#b"/>
<linearGradient id="f" x1="110.17" x2="115.21" y1="135.07" y2="103.88" gradientTransform="scale(.97849 1.022)" gradientUnits="userSpaceOnUse" xlink:href="#b"/>
<linearGradient id="e" x1="121.02" x2="130.72" y1="123.45" y2="91.336" gradientTransform="scale(1.0353 .96589)" gradientUnits="userSpaceOnUse" xlink:href="#b"/>
<radialGradient id="c" cx="64.959" cy="71.937" r="34.085" gradientTransform="scale(.94544 1.0577)" gradientUnits="userSpaceOnUse">
<stop stop-color="#f7f7f7" stop-opacity="0" offset="0"/>
<stop stop-color="#fbfbfb" stop-opacity=".073446" offset=".45062"/>
<stop stop-color="#fff" stop-opacity=".78531" offset="1"/>
</radialGradient>
<linearGradient id="d" x1="52.397" x2="54.702" y1="74.473" y2="42.421" gradientTransform="scale(.9461 1.057)" gradientUnits="userSpaceOnUse" xlink:href="#b"/>
</defs>
<g transform="matrix(2.2619 0 0 1.9558 -16.253 -14.328)">
<g transform="translate(.63676 -222.13)" fill-opacity=".15528" fill-rule="evenodd" stroke-width="1pt">
<path d="m86.41 236.1-0.4375 0.0893 0.40625 7.0213v0.0298l-1.875 11.067v0.0893l-3 10.978-7.875 12.496-0.25 0.38676 0.15625 0.41653 0.84376 4.7304c-1.1389 0.43173-2.1017 0.97033-2.8125 1.6363l-6.875-0.92229 1.4375-12.823 0.125-1.1603-1.1875 0.0297-21.188 0.35702-11.906-2.0826-6.1875-7.1701-0.6875 0.32727 5.3125 8.3006 0.25 0.38677 0.46875 0.0893 12.5 2.1421 0.125 0.0297h0.09375l20.031-0.32727-1.375 12.555-0.09375 0.86278 0.875 0.23801 6.5625 1.6661c-1.1413 2.2683-1.3608 4.3878-2.25 4.1057-0.83731-0.26572-3.2251 0.31328-5.4688 1.1008l-25.656-3.8082-0.5625-0.11902-0.4375 0.38677-15.312 14.608-10.531 4.0759-0.03125 0.71403 11.375-2.8859 0.28125-0.0595 0.21875-0.20826 15.094-14.4 22.125 3.2429c-0.17753 0.10354-0.33181 0.20021-0.46875 0.29751-4.9733-0.82915-11.792-0.78066-15.844 5.2362-6.7024 9.9544-8.5626 22.951-3.4688 28.056 5.0939 5.1048 21.702 1.5488 25.188-5.0875 0.96399-1.8355 1.8938-4.2255 2.75-6.7536 0.09678-0.18879 0.21741-0.31198 0.3125-0.50577 0.86842-1.7699 1.2557-3.5136 1.375-5.2065 0.88859-3.5852 1.4414-6.9499 1.3125-9.1634 0.20942-1.3654 0.62353-2.7672 3.375-2.1124 0.30324 0.0722 0.57576-0.0494 0.875-0.0298l-0.75 6.1585-0.0625 0.11901v0.14876 8.6279l-8.8125 18.029-0.0625 0.14877-0.03125 0.17851-2.0938 22.76v0.20826l0.09375 0.26776 4.7188 11.365 1.625 1.3983-4.2812-13.299 2.0625-22.313 8.8125-18.089 0.125-0.20825v-0.20826-8.7171l2.4062-7.4081c1.5638-0.81459 2.3479-1.4872 2.875-2.0231l-0.625 1.2496 0.375 9.1932 0.03125 0.38677 0.25 0.26776 8.6562 9.1039c-0.0031 0.37594-0.0625 5.5322-0.0625 11.157-1e-5 2.9129 0.02679 5.8321 0.0625 8.0924 0.01785 1.1302 0.0306 2.0832 0.0625 2.7966 0.01594 0.35672 0.0092 0.65688 0.03125 0.89254 0.01103 0.11782 0.04543 0.22489 0.0625 0.32726 0.01707 0.10238-0.01556 0.14889 0.125 0.41652 0.08156 0.15528 0.16137 0.22767 0.28125 0.41653 0.11988 0.18884 0.23947 0.46842 0.4375 0.77353 0.39603 0.61021 0.95333 1.436 1.5938 2.4099 1.2808 1.9476 2.9659 4.4869 4.625 6.9916 3.3182 5.0094 6.5625 9.9072 6.5625 9.9072l1.4375 1.0711c-1e-5 0-2.8706-7.1014-6.1875-12.109-1.6584-2.5037-3.3466-5.0178-4.625-6.9618-0.63922-0.97202-1.1706-1.806-1.5625-2.4098-0.19594-0.30192-0.35537-0.53542-0.46875-0.71404-0.06867-0.10818-0.06372-0.12893-0.09375-0.1785-0.0046-0.0346-0.02562-0.0588-0.03125-0.11901-0.01682-0.17941-0.04734-0.43442-0.0625-0.77353-0.03032-0.67827-0.04481-1.6169-0.0625-2.7371-0.03539-2.2405-0.03125-5.1847-0.03125-8.0924-1e-5 -5.8153 0.03125-11.544 0.03125-11.544v-0.41652l-0.28125-0.29751-8.6562-9.0742-0.53125-12.644-0.1875 0.38676c0.23232-0.58581 0.69224-1.2249 1.5-1.9041l4.875 3.5106 0.34375 0.17852 0.375-0.0893 12.625-2.6181 15.562 9.8774 0.34375 0.20826 0.40625-0.0595 18.188-2.3504-0.0937-0.74378-17.969 1.0413-15.594-9.9072-0.375-0.238-0.4375 0.0892-12.75 2.6181-2.5625-3.0346c0.32746-0.12087 0.46819-0.27795 0.84375-0.38678 6.1662-1.7867 5.0938-5.1172 5.0938-5.1172 0 0 2.4078 1.0117 5.625-3.8379 1.4016-2.1128 1.4399-4.7427 0.78125-7.1998l2.3125 2.4991c1.2798 1.3809 3.4069 1.6433 5.75 0.62478 2.5038-1.0884 7.9486-7.702 9-11.365 0.41724-1.4536 0.66322-3.3284 0.875-5.1172 0.73774-0.13409 4.1273-0.88022 4.4688-5.5932l-4.375 5.1172c0.262-2.6197 0.20275-4.9956-0.84375-5.742-0.8594-0.61297-2.8476-1.3714-5.1875-1.7256l6.25-1.9933c-5.7043-0.6389-6.6375 1.4518-6.7812 1.9636-2.2656-0.27394-4.8026-0.18872-7.0312 0.86279-4.8056 2.2674-11.862 5.7267-11.781 8.9254 0.0644 2.5396 0.3702 3.5677 1.1562 4.6412-4.9298-1.1136-10.79 3.6204-11.531 5.385-2.266 2.6196-1.0435 5.6777-3.875 8.8659l-1.3438-2.7966 7.6875-12.258 0.09375-0.11901 0.03125-0.14875 3.0625-11.186v-0.0297-0.0595l1.9062-11.186v-0.11901-0.0893l-2.0938-7.2296z" fill="url(#k)"/>
<path d="m85.656 235.12c-2.3877 3.5877 0.4159 8.1236-1.3908 12.051-1.4453 9.0326-3.2938 18.27-9.1226 25.62-2.2766 2.765-3.6019 6.1069-2.5372 9.6066-1.6068 2.1073-7.81 1.4659-6.1066-2.2337-0.11427-3.5268 2.0305-9.0862 0.62783-11.45-11.404-0.01-23.265 1.5405-34.284-1.8282-3.2457-1.768-4.2267-7.3135-8.7179-6.703-0.4237 4.2925 3.5529 6.9933 5.25 10.469 5.6801 2.8768 12.485 2.8048 18.744 3.2273 4.7319-0.036 9.4622-0.17082 14.193-0.25852-0.46943 4.3333-0.93393 8.6671-1.4062 13 1.5734 1.1087 8.9298 0.7625 5.9379 3.3248-7.5253 2.8971-15.453-1.0542-23.151-1.2881-3.8962 3e-3 -8.7524-2.8692-11.194 1.5279-6.4475 5.7817-12.095 13.489-20.984 15.398-3.674 1.0322-4.6461 5.121 0.1542 3.9488 5.6817-1.4199 12.028-2.4828 15.586-7.718 3.8942-3.0456 6.7378-8.414 11.839-9.256 1.9995 1.2179 10.143 0.68147 7.2188 2.0938-7.7779 4.6433-10.317 14.449-11.489 22.857-1.0405 6.3708 2.9825 14.577 10.36 13.9 8.8464 0.67743 19.501-3.1009 22.042-12.502 2.314-5.4869 3.6753-11.391 3.962-17.349 3.0031-2.5938-0.14735 5.1021 0.73555 6.8653 0.85689 10.486-9.3622 17.927-9.3225 28.323-0.41868 6.6376-1.8006 13.479-1.2205 20.042 2.2013 5.8594 5.2555 11.852 9.468 12.985 2.0853 0.19103-2.1833-5.1246-3.1183-8.5344-3.2663-7.8395-0.63048-16.22-0.22334-24.322 0.80412-9.3564 8.9852-16.407 9.4374-25.76-0.14508-3.6758 0.04342-7.6818 1.8687-10.942-0.24658 4.2373 0.22817 9.0952 4.2686 11.452 3.1807 2.6333 5.9467 6.1567 4.9103 10.482 0.15062 6.3508-0.53889 13.156 0.94448 19.235 4.9539 7.1849 9.1564 15.149 15.093 21.505 4.301 3.8759 1.326-4.1327-0.0289-6.1114-3.0987-6.7102-8.1263-12.646-11.035-19.342-0.13709-7.5882 0.12986-15.388-0.43376-22.846-3.5203-4.1281-9.6153-7.587-8.7389-13.806-0.43515-2.5092-1.2291-8.8031 2.4382-4.9352 5.4508 3.5167 11.966-3.6999 17.415-0.063 4.6468 3.0888 9.1909 6.7178 14.448 8.6163 6.5314-0.84265 13.062-1.694 19.594-2.5312-0.22415-5.4436-6.7006-2.5497-10.025-2.7883-5.2002 0.56369-10.777 0.97294-14.826-3.0177-3.5933-2.2826-7.236-4.8537-11.055-6.5378-4.2279 0.46168-8.977 2.6646-12.891 2.0777 0.2142-1.9932 4.6441-2.0353 4.5161-4.8277 3.6-1.7964 6.7561-4.952 6.875-9.2188 5.119 4.0091 11.187-1.6747 13.749-6.0859 2.8956-2.8697 2.7304-7.066 4.5034-10.349 3.1944-1.2038 4.3162-5.3645 4.0285-8.5335-3.0839 0.12043-4.444 6.6482-5.7812 0.75-4.7108-0.91266 7.4482-3.0846 3.3526-3.5556-3.556-0.15509-7.9464-1.6237-10.696 1.4931-7.0346-0.15491-13.492 3.8904-18.46 8.4544-2.744 1.842 1.7049 7.0231-2.5397 6.2018-3.7103 1.1614-5.2651 2.9998-2.998-1.7127 1.94-7.3534 4.3262-14.902 4.1542-22.569-1.3731-1.6864-0.86358-8.2822-3.9375-6.5312z" fill="url(#j)"/>
<path d="m85.688 233.06c-5.328 3.699-1.7234 11.027-3.8915 16.22-1.3122 9.2118-5.0477 17.839-10.276 25.463-1.4531 1.33-0.63411 8.3336-2.7583 5.5526-0.55041-4.3824 3.0635-10.424-1.5742-13.58-11.323-0.26387-23.265 1.5213-34.219-2.625-2.8326-3.3359-6.3324-7.1122-11.188-5.9062-0.0353 5.655 3.4212 10.453 6.9688 14.438 10 3.7236 20.746 3.0805 31.219 3.0625l-1.3125 12.469c5.0387 1.1458-4.4418-0.0763-6.2188-0.28125-6.1457-0.86435-12.854-2.8956-18.835-1.0024-7.3432 5.2431-12.576 13.501-21.503 16.423-3.1441 1.0251-7.5973 4.0312-4.5055 7.5487 3.3226 1.8843 7.1722-0.4054 10.631-0.98692 7.6984-2.0858 12.105-8.9955 18.057-13.638 5.4508-2.9791 6.355 0.45834 1.9062 3.8438-4.1368 8.825-8.2526 20.239-2.1875 29.156 5.297 6.1182 14.206 4.4988 21.062 2.5625 3.2627-1.1131 7.3222-5.2337 4.1875 0.40625-1.1893 8.5391-2.8678 17.426-1.216 25.974 1.8347 8.0138 10.926 13.195 11.984 12.741 1.83-0.29516-5.8592-16.878-2.9517-29.104 0.27384-8.4797 4.8173-15.875 8.154-23.367 1.523-1.608 0.89464-9.7336 2.592-7.0253 3.3556 2.9407 7.0064 6.4141 6.0374 11.363 0.38277 8.8719-1.0801 19.042 5.5576 26.116 4.17 5.9568 7.7623 13.578 14.28 16.896 4.8067-1.495 1.0858-7.4004-0.14101-10.352-4.2092-8.7472-12.072-16.811-10.604-27.238-0.10203-5.0032-0.09463-10.217-0.97333-15.067-4.2391-3.9174-9.3232-8.9818-8.2188-15.25 3.3495 1.2016 6.6294 1.4645 9.8657-0.21741 8.1556-2.8178 13.171 6.1047 20.4 7.7438 6.3413 2.258 12.887-1.0364 19.361-1.1337 4.2675 0.933 6.0617-2.6911 3.0997-5.5896-5.6977-4.9427-13.629 0.75627-20.056-2.2481-7.1805-2.0863-12.857-10.454-21.1-8.1727-4.95 1.98 1.2038-2.1339 2.3973-3.851 0.85555-4.2174 4.2738-3.3524 7.4166-4.1953 6.503-2.6861 10.217-9.3601 12.441-15.657 2.47-3.7843 6.4763-8.233 4.4863-13.022-1.7317-1.8255-2.7481-4.6453-6.2457-4.0075-5.5213-0.94834-10.429 2.4671-15.764 3.0798-5.1135 1.8216-9.8154 4.8871-13.366 9.0215 2.2855-8.2803 4.6071-17.963 0.125-25.844-0.83861-0.82365-2.0525-1.2047-3.125-0.71875zm2.2812 30.219c-0.89499 0.0316 0.72802-2.922 0 0z" fill="url(#i)"/>
<path d="m86.469 234.19c-4.0148 1.5481-1.7841 7.2707-2.3956 10.639-1.7078 10.301-3.8793 20.917-10.685 29.269-1.4747 2.3168-2.2765 5.2206-1.5442 7.9365-4.0984 2.8447-5.8654-1.8078-4.2247-5.1821 0.14206-2.7857 1.6069-6.988-0.49408-8.8179-11.449-0.074-23.535 1.6542-34.45-2.2368-2.8662-2.355-4.7865-7.3023-9.3313-6.2945-0.17296 4.7132 3.2655 8.2612 5.7812 11.812 10.204 4.2922 21.606 3.0241 32.406 3-0.45907 4.2708-0.91225 8.5422-1.375 12.812 2.1106 0.94213 10.015 1.6658 3.7812 2.9375-9.57 0.8273-18.937-3.2263-28.482-2.7441-3.7967 1.0441-5.6909 5.47-8.9356 7.6459-4.5413 4.9394-10.198 8.6995-16.562 10.703-2.784 0.61373-2.993 5.5746 0.50651 4.5659 6.4923-1.0217 13.655-2.8129 17.771-8.4354 3.9503-3.3903 7.844-10.074 13.852-7.8213 5.9089-0.34212 0.38404 2.1236-1.182 4.5547-4.7 7.0298-7.3849 15.732-6.5625 24.188 1.1079 5.6688 6.1832 10.577 12.244 9.3059 9.2548 0.56285 19.675-4.4719 21.709-14.204 1.1071-3.6703 2.7035-7.2223 2.8904-11.102 1.4794 11.602-9.7977 19.873-9.4127 31.334-0.33545 8.2108-3.2587 17.172 1.3688 24.697 1.5653 4.9536 5.5352 8.5853 8.4056 7.7864 2.4246-0.63779-6.4234-14.732-4.2611-24.759 0.34559-7.7361 1.7157-15.433 5.9835-22.049 3.6327-5.643 4.7112-12.253 4.6896-18.835 0.46716-1.246 0.99721 5.6301 3.7795 6.4591 4.2649 2.9222 6.4831 7.7602 5.5652 12.861 0.23758 7.7092-1.3541 16.548 4.431 22.711 4.2654 5.9584 7.6178 13.191 13.544 17.576 3.6867-0.0451-0.0183-5.7826-0.58917-7.803-3.0392-7.2381-9.1819-13.227-11.043-20.818-0.08489-7.2249 0.06643-14.664-0.6174-21.754-4.0212-4.0805-9.6255-8.2942-8.6543-14.743-1.1863-4.7222 0.94057-3.5787 3.9043-1.9756 5.6308 0.7051 11.912-4.6241 16.824 0.15871 4.3709 2.7121 8.6234 6.6627 13.762 7.441 6.5441-0.84601 13.089-1.6897 19.633-2.5372 0.26675-5.2397-5.9038-4.919-9.4984-4.1905-5.8783 0.86008-12.372 0.88168-16.936-3.5204-3.5581-1.9264-7.1413-5.364-11.11-5.7354-2.8834 0.45535-9.2692 2.4847-10.143 1.5409 2.7369-0.89191 2.9112-3.9761 5.6251-4.8758 2.7415-1.2629 3.64-5.9048 4.9192-6.7744 6.7602 2.776 11.783-4.7233 15.018-9.5381 1.6652-3.105 1.3852-7.541 4.7812-9.3125 1.7674-2.0238 2.962-7.2952 1.5081-8.2946-2.3893 1.2903-5.9507 4.3982-5.0146 0.65507 2.5506-0.45771 6.3676-3.2861 1.8544-3.3858-3.7918-0.65458-7.8112-0.64579-10.966 1.6412-7.304 0.34026-14.142 4.4463-18.945 9.728-0.17457 3.0856 0.68832 5.5156-3.3134 5.5628-1.4211-0.50316 1.6555-6.7358 1.8666-9.5612 1.8636-7.0306 3.4562-14.839-0.14691-21.533-0.16687-0.46331-1.0532-0.75578-1.5312-0.6875z" fill="url(#h)"/>
</g>
<path transform="matrix(.8372 0 0 .8372 -13.851 -51.395)" d="m147.45 91.908-16.756-7.6988 28.531-4.0759 2.2644 3.1701" fill="none" stroke="#000" stroke-width="1.8908"/>
<path transform="matrix(.8372 0 0 .8372 -13.851 -51.395)" d="m155.46 108.55 4.9816 18.115 14.492-24.455" fill="none" stroke="#000" stroke-width="1.8908"/>
<path transform="matrix(.8372 0 0 .8372 -13.851 -51.395)" d="m97.069 145.26s-17.933-7.6855-25.939 4.8034c-8.0057 12.489-10.247 28.821-4.163 35.225 6.0844 6.4046 25.939 1.9214 30.102-6.4046 4.163-8.326 8.326-25.298 6.4046-29.461-1.9214-4.163-6.4046-4.163-6.4046-4.163z" fill="#7c5a08" fill-rule="evenodd" stroke-width="1pt"/>
<path transform="matrix(.8372 0 0 .8372 -13.851 -51.395)" d="m142.42 138.79-0.52832 0.11123-15.21 3.3089-4.7628-5.9031-3.2336 2.9594 7.2456 5.4184 0.41709 0.22245 0.4449-0.11123 15.071-3.2811 18.602 12.402 0.38928 0.25026 0.50051-0.0556 21.717-2.9474-0.10724-0.9453-21.47 1.3068-18.63-12.429-0.44489-0.30587z" fill="#3e3e3e" fill-rule="evenodd" stroke-width="2.875"/>
<path d="m85.38 67.643-1.9521 4.0742 0.37247 9.6609 0.02327 0.39575 0.25608 0.27936 8.6366 9.5678c-0.0031 0.39489-0.04656 5.8016-0.04656 11.71 0 3.0596 0.01085 6.1461 0.04656 8.5202 0.01785 1.1871 0.03794 2.1838 0.06984 2.9332 0.01594 0.3747 0.02448 0.68365 0.04656 0.93118 0.01103 0.12376 0.02949 0.24166 0.04656 0.34919s-8.79e-4 0.1612 0.13968 0.44231c0.08156 0.16311 0.13619 0.24393 0.25607 0.4423 0.11989 0.19837 0.26757 0.47102 0.4656 0.7915 0.39604 0.64096 0.94258 1.5146 1.583 2.5374 1.2808 2.0457 2.9502 4.7022 4.6093 7.333 3.3182 5.2617 6.588 10.406 6.588 10.406l1.4366 1.1342s-2.892-7.4444-6.2089-12.704c-1.6584-2.6298-3.3309-5.2678-4.6093-7.3097-0.63921-1.021-1.1678-1.9032-1.5597-2.5374-0.19594-0.31711-0.37548-0.55731-0.48886-0.74493-0.06866-0.11362-0.06308-0.13417-0.09312-0.18624-0.0046-0.0363-0.01764-0.0765-0.02327-0.13968-0.01681-0.18845-0.0314-0.45857-0.04657-0.81477-0.03032-0.71242-0.05214-1.71-0.06983-2.8866-0.03539-2.3533-0.04657-5.4429-0.04657-8.497 0-6.1082 0.04657-12.129 0.04657-12.129v-0.41903l-0.27936-0.30263-8.6599-9.5445-0.53877-13.293z" fill="#3e3e3e" fill-rule="evenodd" stroke-width="2.875"/>
<path transform="matrix(.8372 0 0 .8372 -13.851 -51.395)" d="m109.23 147.27-1.1281 9.5139-0.0556 0.16683v0.19464 10.817l-10.539 22.606-0.08342 0.19464-0.02781 0.22245-2.5025 28.557v0.27806l0.11122 0.30587 5.6446 14.265 1.9384 1.7718-5.1083-16.704 2.4469-28.001 10.538-22.69 0.13903-0.25026v-0.27806-10.928l3.3368-10.678-4.7113 0.63566z" fill="#3e3e3e" fill-rule="evenodd" stroke-width="2.875"/>
<path transform="matrix(.8372 0 0 .8372 -13.851 -51.395)" d="m129.57 103.15c0.0932 3.8584 0.37893 4.9767 1.9214 6.7248l9.6069 10.888c1.5286 1.7325 4.0863 2.0784 6.8849 0.80058 2.9907-1.3655 9.4718-9.6545 10.728-14.25 1.2807-4.6867 2.3358-12.62 0.16012-14.25-2.0746-1.5542-9.5324-3.935-15.211-1.1208-5.74 2.8447-14.187 7.1949-14.09 11.208z" fill-rule="evenodd" stroke-width="1pt"/>
<path transform="matrix(.8372 0 0 .8372 -13.851 -51.395)" d="m134.56 103.96c-1.3872-9.2482 20.808-17.572 24.045-9.7106 3.2369 7.861-6.705 21.965-11.098 23.583s-11.637-5.1357-12.948-13.872z" fill="url(#g)" fill-rule="evenodd" stroke-width="1pt"/>
<path transform="matrix(.8372 0 0 .8372 -13.851 -51.395)" d="m63.391 136.26-18.825 18.825-12.556 5.1164-0.03977 0.88968 13.597-3.6148 0.33367-0.0834 0.25025-0.25026 18.046-18.074 34.178 5.2672 0.58393-2.4747-34.873-5.434-0.69515-0.16684z" fill="#3e3e3e" fill-rule="evenodd" stroke-width="2.875"/>
<path transform="matrix(.8372 0 0 .8372 -13.851 -51.395)" d="m51.299 101.69-0.81025 0.42894 6.3398 10.399 0.30587 0.50051 0.55612 0.11122 14.932 2.6972 0.13903 0.0278h0.11122l23.941-0.41709-1.6684 15.766-0.11122 1.0844 1.0566 0.27806 8.5921 2.2801 2.4788-3.154-9.3747-1.3227 1.6962-16.1 0.16684-1.4459-1.4459 0.0278-25.276 0.4449-14.237-2.586-7.3925-9.021z" fill="#3e3e3e" fill-rule="evenodd" stroke-width="2.875"/>
<path transform="matrix(.8372 0 0 .8372 -13.851 -51.395)" d="m123.72 70.14-0.52022 0.11122 0.4727 8.7867v0.05561l-2.2245 13.875-0.0278 0.11122-3.5592 13.764-9.4262 15.683-0.27806 0.4727 0.16684 0.55612 1.1361 6.5703 4.2584-0.75076-2.7807-6.042 9.2038-15.349 0.11123-0.16684 0.0278-0.16683 3.6426-14.042v-0.05561-0.05561l2.2801-14.042 0.0278-0.13903-0.0278-0.13903-2.4828-9.037z" fill="#3e3e3e" fill-rule="evenodd" stroke-width="2.875"/>
<path transform="matrix(.8372 0 0 .8372 -13.851 -51.395)" d="m159.23 101.1s5.4345-0.67931 5.8874-7.246" fill="none" stroke="#000" stroke-width=".88979pt"/>
<path transform="matrix(.8372 0 0 .8372 -13.851 -51.395)" d="m151.99 91.135s0.45287-3.623 8.1517-2.7172" fill="none" stroke="#000" stroke-width=".88979pt"/>
<path transform="matrix(.8372 0 0 .8372 -13.851 -51.395)" d="m89.283 144.02c1.3079-1.6349 10.028-4.8452 11.949-4.2047 1.9214 0.64046 0.78919-8.6462 9.4354-10.888 6.3818-4.7324 3.3444-9.351 6.5145-13.2 0.90573-2.2644 8.2005-8.4719 14.168-6.6926 6.1071 1.8209 9.911 11.567 6.0683 17.651-3.8428 6.0844-6.7248 4.8034-6.7248 4.8034s1.2809 4.163-6.0844 6.4046c-7.3653 2.2416-6.7248 6.7248-6.7248 6.7248s-4.8034 5.7641-9.9271 4.4832c-5.1237-1.2809-3.5158 3.713-4.6602 5.0209l-14.014-10.103z" fill="#3c2b00" fill-rule="evenodd" stroke-width="1pt"/>
<path transform="matrix(.8372 0 0 .8372 -13.851 -51.395)" d="m104.63 140.76c-2.9428-3.5967 4.7411-12.915 10.627-8.3378 5.8855 4.5776 3.5967 12.588-1.3079 13.896s-6.3094-1.8804-9.3188-5.5586z" fill="url(#f)" fill-rule="evenodd" stroke-width="1pt"/>
<path transform="matrix(.8372 0 0 .8372 -13.851 -51.395)" d="m117.87 120.81c-1.2806-2.4523 0.65394-5.6403 2.9428-7.3569s8.1471-4.1417 10.79-2.9428 5.5858 7.1934 5.0681 10.136-5.0408 7.4932-8.1744 7.5204c-3.1335 0.0273-9.346-4.9046-10.627-7.3569z" fill="url(#e)" fill-rule="evenodd" stroke-width="1pt"/>
<path d="m43.043 81.71s-5.562 15.032 0.05852 19.907c5.4456 4.7226 19.41 6.1634 27.361-10.858 7.9512-17.021-18.303-32.734-27.419-9.049z" fill="url(#c)" fill-rule="evenodd" stroke-width="1pt"/>
<path d="m58.62 74.099c-6.0202 0.57656-10.181 9.2307-12.36 16.012-1.2094 0.51832-1.0476-6.8264-0.52924-8.0358 0.51832-1.2094 2.3222-7.9799 5.2051-9.9618 2.7644-1.9005 6.6543-2.0002 9.6768-0.91637 2.9935 1.0734 3.7658 2.3509-1.9922 2.9023z" fill="url(#d)" fill-rule="evenodd" stroke-width="1pt"/>
</g>
</svg>
